<svg width="40" height="40" viewBox="0 0 40 40" fill="none" xmlns="http://www.w3.org/2000/svg">
<g clip-path="url(#clip0_1401_1910)">
<path d="M7.85181 16.3565C7.7065 16.2112 7.50494 16.1284 7.29939 16.1284C7.09314 16.1284 6.89228 16.2112 6.74619 16.3565C6.60088 16.5026 6.51807 16.7034 6.51807 16.9097C6.51807 17.1152 6.60088 17.3169 6.74619 17.4622C6.89228 17.6075 7.09314 17.6911 7.29939 17.6911C7.50486 17.6911 7.7065 17.6075 7.85181 17.4622C7.99713 17.3161 8.08072 17.1153 8.08072 16.9097C8.08072 16.7042 7.9972 16.5026 7.85181 16.3565Z" fill="white"/>
<path d="M37.1141 7.94713C37.4977 7.8008 37.8291 7.6744 38.0817 7.51416C38.3658 7.33401 38.6048 7.14572 38.8122 6.9383C40.3969 5.35362 40.3966 2.77456 38.8114 1.18909C37.226 -0.395903 34.6471 -0.396293 33.0623 1.18847C32.8553 1.39542 32.667 1.63425 32.4863 1.91886C32.3263 2.17136 32.1999 2.50269 32.0535 2.88628C31.9128 3.25534 31.588 4.10706 31.3538 4.25198C31.334 4.24534 31.2963 4.22956 31.2394 4.19245C30.132 3.47128 27.6902 2.32214 25.796 2.68769L25.1682 2.05987C24.6175 1.50909 23.8852 1.20581 23.1063 1.20581C22.3274 1.20581 21.5951 1.50909 21.0443 2.05987C20.4936 2.61065 20.1902 3.34292 20.1902 4.12182C20.1902 4.51901 20.2695 4.90385 20.4198 5.25893C18.9337 5.16768 17.4168 5.68737 16.2836 6.82041L8.55389 14.5502C8.24881 14.8552 8.24881 15.35 8.55389 15.6552C8.85897 15.9602 9.35373 15.9602 9.65889 15.6552L14.0448 11.2692L16.8244 14.0488C16.977 14.2013 17.1769 14.2776 17.3769 14.2776C17.5769 14.2776 17.7769 14.2013 17.9294 14.0488C18.2345 13.7437 18.2345 13.2489 17.9294 12.9438L15.1499 10.1643L17.3887 7.92549C18.1096 7.20463 19.0679 6.80768 20.0873 6.80768C21.1067 6.80768 22.065 7.20463 22.786 7.92549L32.0749 17.2144C32.7957 17.9352 33.1927 18.8937 33.1927 19.913C33.1927 20.9324 32.7956 21.8908 32.0749 22.6116L16.9805 37.7063C16.0047 38.6822 14.4169 38.6822 13.441 37.7063L2.29429 26.5597C1.31843 25.5838 1.31843 23.996 2.29429 23.0201L5.88921 19.4252C6.19428 19.1202 6.19428 18.6254 5.88921 18.3202C5.58413 18.0151 5.08937 18.0152 4.78421 18.3202L1.18929 21.9152C-0.395781 23.5003 -0.395781 26.0794 1.18929 27.6646L12.3361 38.8113C13.1286 39.6039 14.1697 40.0001 15.2108 40.0001C16.2518 40.0001 17.2929 39.6039 18.0855 38.8113L33.18 23.7168C34.3131 22.5837 34.8327 21.0667 34.7415 19.5806C35.0965 19.7309 35.4814 19.8102 35.8786 19.8102C36.6575 19.8102 37.3898 19.507 37.9406 18.9562C39.0775 17.8193 39.0775 15.9692 37.9406 14.8324L37.3128 14.2045C37.6784 12.3104 36.5292 9.86869 35.8081 8.76119C35.771 8.70424 35.7552 8.66666 35.7485 8.64682C35.8935 8.4126 36.745 8.08791 37.1141 7.94713ZM35.889 14.9906C35.8892 14.9909 35.8895 14.9911 35.8898 14.9913L36.8356 15.9372C37.3633 16.465 37.3633 17.3236 36.8356 17.8513C36.58 18.1068 36.2401 18.2476 35.8786 18.2476C35.5171 18.2476 35.1773 18.1068 34.9217 17.8511L22.1494 5.07893C21.8939 4.82339 21.7531 4.48346 21.7531 4.12198C21.7531 3.7605 21.8939 3.42057 22.1496 3.16503C22.4133 2.9012 22.76 2.76933 23.1065 2.76933C23.4531 2.76933 23.7997 2.9012 24.0635 3.16503L25.0098 4.11135C25.0099 4.11143 25.01 4.11159 25.0101 4.11167L35.889 14.9906ZM34.4985 9.61392C35.0684 10.489 35.5567 11.636 35.7428 12.6345L27.366 4.25784C28.3646 4.44385 29.5116 4.93221 30.3867 5.50213C30.9892 5.8944 31.5004 5.85143 31.8232 5.74651C32.7503 5.44479 33.1735 4.33495 33.5135 3.44323C33.615 3.17706 33.7301 2.87519 33.8056 2.75604C33.9239 2.5698 34.0421 2.41855 34.1671 2.29355C35.1426 1.31816 36.7303 1.31839 37.7063 2.29417C38.6821 3.27026 38.6825 4.85792 37.7071 5.83346C37.582 5.95854 37.4308 6.07666 37.2448 6.19455C37.1251 6.27041 36.8233 6.38549 36.557 6.48705C35.6654 6.82713 34.5557 7.25041 34.254 8.17736C34.1492 8.50018 34.1063 9.01142 34.4985 9.61392Z" fill="white"/>
<path d="M29.2142 21.6649L25.9564 18.407C25.6513 18.102 25.1565 18.102 24.8514 18.407C24.5463 18.7121 24.5463 19.2069 24.8514 19.512L28.1092 22.7699C28.2618 22.9225 28.4617 22.9988 28.6618 22.9988C28.8617 22.9988 29.0618 22.9225 29.2143 22.7699C29.5193 22.4648 29.5193 21.9701 29.2142 21.6649Z" fill="white"/>
<path d="M25.4983 25.3807L22.2405 22.1228C21.9355 21.8176 21.4407 21.8176 21.1355 22.1228C20.8305 22.4279 20.8305 22.9226 21.1355 23.2278L24.3934 26.4857C24.546 26.6382 24.7459 26.7145 24.9459 26.7145C25.1459 26.7145 25.3459 26.6382 25.4984 26.4857C25.8034 26.1806 25.8034 25.6858 25.4983 25.3807Z" fill="white"/>
<path d="M21.7825 29.0961L18.5246 25.8382C18.2196 25.5331 17.7248 25.5331 17.4197 25.8382C17.1146 26.1433 17.1146 26.638 17.4197 26.9432L20.6776 30.2011C20.8302 30.3537 21.0301 30.4299 21.2301 30.4299C21.43 30.4299 21.6301 30.3537 21.7826 30.2011C22.0877 29.8961 22.0877 29.4013 21.7825 29.0961Z" fill="white"/>
<path d="M18.0672 32.8116L14.8093 29.5538C14.5042 29.2487 14.0095 29.2487 13.7044 29.5538C13.3993 29.8588 13.3993 30.3536 13.7044 30.6588L16.9623 33.9166C17.1149 34.0692 17.3148 34.1455 17.5148 34.1455C17.7148 34.1455 17.9148 34.0692 18.0673 33.9166C18.3724 33.6116 18.3724 33.1169 18.0672 32.8116Z" fill="white"/>
<path d="M20.5525 15.5667C20.4072 15.4214 20.2056 15.3386 20.0001 15.3386C19.7946 15.3386 19.593 15.4214 19.4477 15.5667C19.3016 15.7121 19.2188 15.9136 19.2188 16.12C19.2188 16.3254 19.3016 16.5271 19.4477 16.6724C19.593 16.8177 19.7945 16.9013 20.0001 16.9013C20.2055 16.9013 20.4073 16.8178 20.5525 16.6724C20.6978 16.5271 20.7814 16.3255 20.7814 16.12C20.7814 15.9137 20.6978 15.7128 20.5525 15.5667Z" fill="white"/>
</g>
<defs>
<clipPath id="clip0_1401_1910">
<rect width="40" height="40" fill="white"/>
</clipPath>
</defs>
</svg>
