<svg width="38" height="40" viewBox="0 0 38 40" fill="none" xmlns="http://www.w3.org/2000/svg">
<path d="M34.6993 21.8393H28.2068C27.7754 21.8393 27.4255 22.1891 27.4255 22.6205C27.4255 23.052 27.7754 23.4018 28.2068 23.4018H34.6993C34.9968 23.4018 35.2388 23.6438 35.2388 23.9413V27.372H14.1435V23.9413C14.1435 23.6438 14.3855 23.4018 14.683 23.4018H21.1755C21.6069 23.4018 21.9568 23.052 21.9568 22.6205C21.9568 22.1891 21.6069 21.8393 21.1755 21.8393H18.8443L20.6092 2.54117C20.6687 1.89086 20.4504 1.24125 20.0101 0.758984C19.57 0.276641 18.9429 0 18.2899 0H2.87247C2.21942 0 1.59239 0.276641 1.15215 0.758984C0.71192 1.24133 0.493561 1.89086 0.553092 2.54117L3.23903 31.9107V37.2968C3.23903 38.7874 4.45169 40.0001 5.94231 40.0001H32.5496C34.894 40.0001 36.8014 38.0927 36.8014 35.7483V29.7561C36.8014 29.3832 36.7151 29.0302 36.5618 28.7155C36.7093 28.5734 36.8014 28.3744 36.8014 28.1534V23.9415C36.8013 22.7823 35.8583 21.8393 34.6993 21.8393ZM14.683 21.8393C13.524 21.8393 12.581 22.7823 12.581 23.9413V28.1533C12.581 28.3742 12.6731 28.5733 12.8205 28.7155C12.6672 29.0301 12.581 29.3831 12.581 29.756V31.0938H4.73333L2.35801 5.12117H18.8043L17.2754 21.8394H14.683V21.8393ZM2.3063 1.81227C2.45325 1.65125 2.65434 1.5625 2.87247 1.5625H18.2899C18.508 1.5625 18.709 1.65117 18.8561 1.81227C19.0031 1.97336 19.0731 2.18172 19.0532 2.39883L18.9472 3.55859H2.21512L2.10903 2.39883C2.08919 2.18172 2.15926 1.97336 2.3063 1.81227ZM4.80153 37.2967V32.6562H12.5811V35.3131C12.5768 35.3131 12.5729 35.3125 12.5686 35.3125H8.59387C7.72544 35.3125 7.01895 36.019 7.01895 36.8874V38.4375H5.94223C5.31325 38.4375 4.80153 37.9258 4.80153 37.2967ZM8.58137 38.4375V36.8874C8.58137 36.8805 8.58692 36.875 8.59379 36.875H12.5686C12.5754 36.875 12.581 36.8805 12.581 36.8874V38.4375H8.58137ZM35.2388 35.7482C35.2388 37.2311 34.0324 38.4375 32.5495 38.4375H16.8329C15.35 38.4375 14.1436 37.2311 14.1436 35.7482V29.756C14.1436 29.303 14.5121 28.9345 14.965 28.9345H34.4175C34.8704 28.9345 35.239 29.303 35.239 29.756V35.7482H35.2388Z" fill="white"/>
<path d="M29.144 31.186H20.2378C19.8064 31.186 19.4565 31.5358 19.4565 31.9673V35.4048C19.4565 35.8363 19.8064 36.186 20.2378 36.186H29.144C29.5754 36.186 29.9253 35.8363 29.9253 35.4048V31.9673C29.9253 31.5358 29.5755 31.186 29.144 31.186ZM28.3628 34.6235H21.019V32.7485H28.3628V34.6235Z" fill="white"/>
<path d="M11.529 13.243C11.2928 12.9635 10.9474 12.8032 10.5815 12.8032C10.2155 12.8032 9.87014 12.9635 9.63389 13.243L8.08037 15.0808C6.99014 16.3706 7.07154 18.3164 8.26576 19.5106C8.88428 20.1291 9.7067 20.4697 10.5815 20.4697C11.4562 20.4697 12.2787 20.1291 12.8972 19.5106C14.0914 18.3164 14.1729 16.3707 13.0826 15.0808L11.529 13.243ZM11.7923 18.4057C11.4689 18.7292 11.0389 18.9073 10.5815 18.9073C10.1241 18.9073 9.69412 18.7292 9.37068 18.4057C8.74623 17.7814 8.70365 16.7639 9.27373 16.0896L10.5815 14.5424L11.8892 16.0896C12.4594 16.7639 12.4168 17.7814 11.7923 18.4057Z" fill="white"/>
<path d="M37.204 8.63519C35.9617 7.49261 34.4229 6.78229 32.7543 6.58097C30.6118 6.32214 28.4982 6.91534 26.8029 8.25073C25.1162 9.5794 24.0507 11.4805 23.8027 13.6038C23.7007 14.4764 23.74 15.3469 23.917 16.1928C23.6157 16.9057 23.4114 17.6631 23.319 18.445C23.2683 18.8735 23.5745 19.2619 24.0031 19.3125C24.0342 19.3162 24.0651 19.318 24.0958 19.318C24.4862 19.318 24.8237 19.0257 24.8707 18.6284C24.9308 18.1198 25.0457 17.6282 25.2102 17.1594C25.7511 17.3489 26.3119 17.481 26.887 17.5518C27.2135 17.5921 27.5387 17.6117 27.8615 17.6117C31.2527 17.6117 34.3584 15.4421 35.4686 12.1743C35.7804 11.2564 36.3639 10.4444 37.1561 9.82605C37.337 9.6848 37.4467 9.47112 37.456 9.24175C37.465 9.01237 37.3729 8.79058 37.204 8.63519ZM33.9889 11.6716C33.01 14.553 30.1034 16.3736 27.0779 16.001C26.6764 15.9516 26.2839 15.8649 25.9029 15.7437C26.4741 14.8601 27.2541 14.1129 28.2029 13.5651C28.5765 13.3494 28.7046 12.8716 28.4888 12.4979C28.2731 12.1242 27.7953 11.9962 27.4216 12.212C26.6322 12.6678 25.9318 13.2485 25.341 13.9217C25.3454 13.8761 25.3493 13.8307 25.3547 13.7851C25.5541 12.0775 26.4118 10.5478 27.7698 9.47815C29.1364 8.40167 30.8403 7.92401 32.567 8.13214C33.6218 8.25948 34.6124 8.63995 35.4736 9.2437C34.8032 9.94011 34.2968 10.7657 33.9889 11.6716Z" fill="white"/>
<path d="M24.6909 23.4019C25.1224 23.4019 25.4722 23.0521 25.4722 22.6206C25.4722 22.1891 25.1224 21.8394 24.6909 21.8394C24.2594 21.8394 23.9097 22.1891 23.9097 22.6206C23.9097 23.0521 24.2594 23.4019 24.6909 23.4019Z" fill="white"/>
</svg>
