<svg width="50" height="50" viewBox="0 0 50 50" fill="none" xmlns="http://www.w3.org/2000/svg">
<g clip-path="url(#clip0_1401_1963)">
<path d="M30.1687 25.286C30.5496 24.9042 31.1687 24.9042 31.5496 25.286C31.9314 25.6669 31.9314 26.286 31.5496 26.6669C31.1687 27.0487 30.5496 27.0487 30.1687 26.6669C29.7869 26.286 29.7869 25.6669 30.1687 25.286Z" fill="#F7F7F7"/>
<path d="M25 26.9531C26.6154 26.9531 27.9297 28.2674 27.9297 29.8828C27.9297 31.4982 26.6154 32.8125 25 32.8125C23.3846 32.8125 22.0703 31.4982 22.0703 29.8828C22.0703 28.2674 23.3846 26.9531 25 26.9531ZM25 30.8594C25.5385 30.8594 25.9766 30.4213 25.9766 29.8828C25.9766 29.3443 25.5385 28.9062 25 28.9062C24.4615 28.9062 24.0234 29.3443 24.0234 29.8828C24.0234 30.4213 24.4615 30.8594 25 30.8594Z" fill="#F7F7F7"/>
<path d="M25 22.0703C26.0916 22.0703 27.1472 22.2909 28.1371 22.7261C28.6309 22.9432 28.8552 23.5193 28.6382 24.0131C28.4212 24.5068 27.8449 24.7311 27.3512 24.5142C26.6104 24.1886 25.8193 24.0234 25 24.0234C21.7691 24.0234 19.1406 26.652 19.1406 29.8828C19.1406 33.1137 21.7691 35.7422 25 35.7422C28.2309 35.7422 30.8594 33.1137 30.8594 29.8828C30.8594 29.8494 30.8595 29.8168 30.8587 29.7834C30.8462 29.2442 31.2731 28.797 31.8123 28.7845C32.3523 28.771 32.7987 29.1988 32.8112 29.7381C32.8124 29.7867 32.8125 29.8342 32.8125 29.8828C32.8125 34.1906 29.3078 37.6953 25 37.6953C20.6922 37.6953 17.1875 34.1906 17.1875 29.8828C17.1875 25.575 20.6922 22.0703 25 22.0703Z" fill="#F7F7F7"/>
<path d="M25 7.42188C25.5394 7.42188 25.9766 7.85908 25.9766 8.39844V14.2578C25.9766 14.7972 25.5394 15.2344 25 15.2344C24.4606 15.2344 24.0234 14.7972 24.0234 14.2578V8.39844C24.0234 7.85908 24.4606 7.42188 25 7.42188Z" fill="#F7F7F7"/>
<path d="M35.91 14.662L40.0526 10.5194C40.4339 10.1381 41.0523 10.1381 41.4337 10.5194C41.8151 10.9008 41.8151 11.5191 41.4337 11.9006L37.2911 16.0431C36.9098 16.4245 36.2913 16.4246 35.91 16.0431C35.5286 15.6618 35.5286 15.0434 35.91 14.662Z" fill="#F7F7F7"/>
<path d="M8.56575 10.5194C8.9471 10.1381 9.56546 10.1381 9.9469 10.5194L14.0895 14.662C14.4708 15.0433 14.4708 15.6617 14.0895 16.0431C13.7082 16.4245 13.0898 16.4246 12.7083 16.0431L8.56575 11.9006C8.1844 11.5192 8.1844 10.9009 8.56575 10.5194Z" fill="#F7F7F7"/>
<path d="M0.244637 30.0498C6.44825 23.0265 15.6596 17.1875 25 17.1875C34.3417 17.1875 43.5529 23.0279 49.7554 30.0498C50.1124 30.4541 50.0741 31.0712 49.6699 31.4282C49.2656 31.7853 48.6484 31.747 48.2915 31.3428C48.0834 31.1071 47.8702 30.8724 47.6543 30.6391C42.8286 37.9305 34.0808 42.5781 25 42.5781C15.9192 42.5781 7.17139 37.9305 2.34571 30.6391C2.12979 30.8725 1.91661 31.1072 1.7085 31.3428C1.35265 31.7457 0.735558 31.7863 0.330086 31.4282C-0.0741119 31.0712 -0.112392 30.454 0.244637 30.0498ZM25 40.625C33.5855 40.625 41.8429 36.1642 46.2587 29.2012C42.7794 25.7919 34.7401 19.1406 25 19.1406C15.2598 19.1406 7.22062 25.7919 3.74132 29.2011C8.15714 36.1642 16.4146 40.625 25 40.625Z" fill="#F7F7F7"/>
</g>
<defs>
<clipPath id="clip0_1401_1963">
<rect width="50" height="50" fill="white" transform="matrix(-1 0 0 1 50 0)"/>
</clipPath>
</defs>
</svg>
