<svg width="40" height="40" viewBox="0 0 40 40" fill="none" xmlns="http://www.w3.org/2000/svg">
<g clip-path="url(#clip0_1401_1945)">
<path d="M30.8887 32.3416C30.6264 32.1528 30.2602 32.2123 30.0713 32.4748C27.1648 36.5129 23.4943 38.8289 20.0007 38.8289C16.8392 38.8289 13.5589 36.9573 10.7644 33.559C7.1148 29.121 5.24966 23.1575 6.12328 18.7196C6.18582 18.4023 5.97915 18.0944 5.66183 18.0319C5.34476 17.9694 5.03666 18.176 4.9742 18.4934C4.49784 20.9128 4.73988 23.7267 5.67394 26.6311C6.56599 29.4047 8.01341 32.0576 9.85973 34.3029C12.8809 37.9767 16.4824 40.0001 20.0007 40.0001C23.8756 40.0001 27.8927 37.5065 31.0219 33.1589C31.2108 32.8964 31.1512 32.5304 30.8887 32.3416Z" fill="white"/>
<path d="M34.2062 15.9863C33.1359 13.7562 31.1977 11.9445 28.4441 10.6002L27.4225 6.74474C27.3396 6.43211 27.0192 6.24613 26.7065 6.32866C26.3939 6.41158 26.2076 6.73209 26.2904 7.04472L27.3347 10.9858C27.4079 11.2623 27.5981 11.4922 27.8563 11.6168C28.0168 11.6941 28.1742 11.7732 28.3286 11.8538C29.0832 12.6846 29.5977 13.6133 29.8573 14.6152C29.9981 15.1588 30.0642 15.7306 30.0571 16.3198C29.0985 16.4429 28.3551 17.2636 28.3551 18.2552C28.3551 18.9147 28.6842 19.4984 29.1864 19.852C28.9655 20.3164 28.7065 20.7709 28.4113 21.2108C28.0383 20.995 27.6059 20.8708 27.1449 20.8708C25.7456 20.8708 24.6073 22.0091 24.6073 23.4084C24.6073 23.8327 24.7126 24.2328 24.8975 24.5846C24.4108 24.8815 23.9081 25.1355 23.3945 25.3435L22.9194 24.5207C22.6761 24.0994 22.2227 23.8377 21.7361 23.8377H21.406C21.0826 23.8377 20.8204 24.0998 20.8204 24.4233C20.8204 24.7468 21.0826 25.0089 21.406 25.0089H21.7361C21.8057 25.0089 21.8705 25.0463 21.9053 25.1065L23.6408 28.1125C23.6755 28.1727 23.6755 28.2475 23.6408 28.3077L21.9053 31.3136C21.8705 31.3739 21.8057 31.4113 21.7361 31.4113H18.2652C18.1956 31.4113 18.1308 31.3739 18.096 31.3137L16.3605 28.3077C16.3258 28.2475 16.3258 28.1727 16.3605 28.1125C16.814 27.3276 17.6502 25.8825 18.096 25.1066C18.1308 25.0464 18.1956 25.0089 18.2652 25.0089H18.6734C18.9968 25.0089 19.2589 24.7468 19.2589 24.4233C19.2589 24.0998 18.9968 23.8377 18.6734 23.8377H18.2652C17.7787 23.8377 17.3253 24.0995 17.0818 24.5209L16.607 25.3432C16.0935 25.1351 15.5908 24.8813 15.1041 24.5841C15.2889 24.2323 15.3941 23.8325 15.3941 23.4083C15.3941 22.009 14.2557 20.8707 12.8565 20.8707C12.396 20.8707 11.9641 20.9946 11.5915 21.2099C11.2962 20.7697 11.0372 20.3152 10.8163 19.8509C11.3177 19.4972 11.6463 18.914 11.6463 18.2551C11.6463 17.2636 10.9032 16.4432 9.94479 16.3198C9.93745 15.7303 10.0034 15.1586 10.144 14.6151C10.4037 13.612 10.9198 12.6822 11.6772 11.8506C11.8291 11.7713 11.9836 11.6934 12.1413 11.6173C12.4018 11.4917 12.5925 11.2592 12.6636 10.9835L14.9143 2.49429C15.1809 1.62942 17.7518 1.21779 19.9993 1.19483C22.2086 1.196 24.7726 1.66752 25.0627 2.42769C25.1091 2.55153 25.5529 4.2805 25.587 4.38989C25.6699 4.70252 25.9906 4.88842 26.303 4.80597C26.6157 4.72305 26.802 4.40254 26.7191 4.08991C26.6953 4.01417 26.1791 2.01278 26.1568 2.00982C25.8167 1.11832 24.6735 0.536629 22.6622 0.23142C19.3357 -0.0773028 20.6633 -0.0773028 17.337 0.23142C15.2202 0.578948 14.1109 1.10129 13.7843 2.18627L11.5534 10.6008C8.93164 11.8819 7.04643 13.5902 5.94912 15.6794C5.79874 15.9657 5.90891 16.3198 6.19522 16.4701C6.47576 16.6192 6.83484 16.5131 6.98592 16.224C7.53497 15.1787 8.31459 14.2365 9.31485 13.4039C9.19313 13.703 9.09116 14.0089 9.01027 14.3215C8.82756 15.0271 8.7498 15.7694 8.77759 16.5324C8.16218 16.8612 7.74227 17.5099 7.74227 18.255C7.74227 19.3296 8.61519 20.2041 9.68916 20.2068C9.97571 20.8325 10.3246 21.4414 10.7303 22.0256C10.4705 22.4236 10.3189 22.8984 10.3189 23.4082C10.3189 24.8075 11.4572 25.9458 12.8564 25.9458C13.4021 25.9458 13.9077 25.772 14.322 25.4778C14.8687 25.8243 15.4354 26.1217 16.0159 26.367L15.3463 27.5269C15.103 27.9482 15.103 28.4718 15.3463 28.8932L17.0819 31.8994C17.3253 32.3207 17.7787 32.5824 18.2652 32.5824H21.7361C22.2227 32.5824 22.6761 32.3206 22.9195 31.8993L24.655 28.8932C24.8983 28.4718 24.8983 27.9482 24.655 27.5269L23.985 26.3664C24.5657 26.1211 25.1328 25.8243 25.6796 25.478C26.0938 25.7721 26.5993 25.9458 27.1449 25.9458C28.5441 25.9458 29.6824 24.8075 29.6824 23.4082C29.6824 22.8991 29.5311 22.4248 29.272 22.0271C29.6778 21.4427 30.0276 20.8332 30.3145 20.2068C31.3874 20.2028 32.259 19.3289 32.259 18.255C32.259 17.5101 31.8395 16.8616 31.2245 16.5327C31.2521 15.7697 31.174 15.0273 30.9911 14.3213C30.9102 14.0089 30.8083 13.703 30.6866 13.4039C31.772 14.3071 32.5967 15.3395 33.1503 16.4929C34.826 19.9846 34.2307 25.1753 31.5966 30.0393C31.4426 30.3238 31.5483 30.679 31.8327 30.8331C32.1115 30.9857 32.4717 30.8841 32.6264 30.5971C33.9462 28.1601 34.8117 25.5654 35.1294 23.0934C35.4732 20.4186 35.1539 17.961 34.2062 15.9863ZM8.91353 18.2551C8.91353 17.8246 9.26379 17.4743 9.69432 17.4743C10.1248 17.4743 10.4751 17.8246 10.4751 18.2551C10.4751 18.6856 10.1248 19.0359 9.69432 19.0359C9.26379 19.0359 8.91353 18.6856 8.91353 18.2551ZM11.4901 23.4083C11.4901 22.6549 12.1031 22.0419 12.8565 22.0419C13.6099 22.0419 14.2229 22.6549 14.2229 23.4083C14.2229 24.1617 13.6099 24.7747 12.8565 24.7747C12.1031 24.7747 11.4901 24.1617 11.4901 23.4083ZM27.1449 24.7747C26.3915 24.7747 25.7785 24.1617 25.7785 23.4083C25.7785 22.6549 26.3915 22.0419 27.1449 22.0419C27.8983 22.0419 28.5113 22.6549 28.5113 23.4083C28.5113 24.1617 27.8983 24.7747 27.1449 24.7747ZM30.3071 19.0359C29.8766 19.0359 29.5263 18.6856 29.5263 18.2551C29.5263 17.8246 29.8766 17.4743 30.3071 17.4743C30.7376 17.4743 31.0879 17.8246 31.0879 18.2551C31.0879 18.6856 30.7376 19.0359 30.3071 19.0359Z" fill="white"/>
<path d="M18.2775 26.2777L17.3995 27.7985C17.2256 28.0995 17.2256 28.4736 17.3994 28.7746L18.2775 30.2955C18.4513 30.5965 18.7751 30.7835 19.1227 30.7835H20.8789C21.2265 30.7835 21.5503 30.5965 21.7241 30.2955L22.602 28.7747C22.776 28.4737 22.776 28.0996 22.6021 27.7986L21.724 26.2777C21.5501 25.9768 21.2263 25.7898 20.8789 25.7898H19.1227C18.7753 25.7897 18.4514 25.9767 18.2775 26.2777ZM20.7662 26.9609L21.5316 28.2866L20.7662 29.6123H19.2355L18.4701 28.2866L19.2355 26.9609H20.7662Z" fill="white"/>
</g>
<defs>
<clipPath id="clip0_1401_1945">
<rect width="40" height="40" fill="white"/>
</clipPath>
</defs>
</svg>
