<svg width="37" height="38" viewBox="0 0 37 38" fill="none" xmlns="http://www.w3.org/2000/svg">
<g clip-path="url(#clip0_1401_1935)">
<path d="M7.35187 10.1187C8.9313 10.3507 10.3791 11.0365 11.5384 12.1019C13.5064 13.9103 16.038 14.9705 18.6671 15.0872C18.8285 15.0943 18.9896 15.098 19.1507 15.0979C21.6505 15.0979 24.1048 14.2394 26.1093 12.6545C26.9218 12.012 27.6424 11.2664 28.2624 10.4341C28.9672 11.0993 29.611 11.8363 30.178 12.6325C30.317 12.8277 30.53 12.9308 30.7457 12.9308C30.893 12.9308 31.0415 12.8827 31.1687 12.7833C31.482 12.5381 31.5463 12.0731 31.3124 11.7447C30.5699 10.7019 29.707 9.75185 28.7533 8.91758C28.3654 7.71398 27.7967 6.57953 27.0604 5.54268C25.5497 3.41494 23.4645 1.90077 21.0303 1.16379C18.6756 0.451007 16.1164 0.542359 13.824 1.42122C13.4568 1.56193 13.268 1.98811 13.4023 2.37304C13.5365 2.75789 13.943 2.95588 14.3102 2.8151C16.3224 2.04362 18.5694 1.96362 20.6375 2.58973C22.772 3.23595 24.6004 4.56348 25.9248 6.42889C26.111 6.69107 26.2833 6.96105 26.4448 7.23659C26.2436 7.11622 26.0406 6.99911 25.8346 6.88832C23.7749 5.78111 21.5624 5.17623 19.2498 5.08369L17.6393 3.59519C17.3461 3.32418 16.8988 3.35364 16.6403 3.66109C16.3817 3.96854 16.4099 4.43747 16.7031 4.70849L17.169 5.13905C16.0938 5.24191 15.0343 5.45882 14.0045 5.78787C13.6305 5.90734 13.4197 6.32203 13.5338 6.71408C13.6477 7.10612 14.0436 7.32727 14.4172 7.20757C15.7749 6.77374 17.1903 6.55378 18.624 6.55378C19.8689 6.55378 21.0832 6.7166 22.2582 7.03689L20.5563 8.50015C20.2541 8.76003 20.21 9.22763 20.4579 9.54458C20.5979 9.7235 20.8009 9.81611 21.0056 9.81611C21.1634 9.81611 21.3224 9.76097 21.4541 9.6478L23.8576 7.58129C24.3083 7.76629 24.7525 7.97453 25.1887 8.20903C25.8788 8.58 26.5401 9.0125 27.1658 9.49686C26.6177 10.2371 25.9781 10.8991 25.2567 11.4696C23.3843 12.9501 21.0651 13.7081 18.7269 13.6044C16.4191 13.502 14.1976 12.572 12.4715 10.9859C11.3152 9.92334 9.91926 9.18147 8.39518 8.8131C8.7067 7.99991 9.1111 7.23362 9.60242 6.52685C9.83261 6.19565 9.76317 5.73139 9.44726 5.49006C9.13134 5.24881 8.68844 5.32153 8.45825 5.6528C7.71918 6.71623 7.15268 7.8969 6.77454 9.1621C6.71239 9.37019 6.74064 9.59638 6.85184 9.78064C6.96305 9.96475 7.14588 10.0885 7.35187 10.1187Z" fill="#F7F7F7"/>
<path d="M14.1237 30.9412C14.6336 28.2503 14.2436 25.4217 13.0253 22.9762C11.7904 20.497 9.75513 18.5294 7.2947 17.4357C6.35779 17.0193 5.3818 16.7361 4.38422 16.5894C4.58129 15.6174 4.86811 14.665 5.24214 13.7526C5.39652 13.3761 5.23046 12.9397 4.87137 12.7778C4.51185 12.6159 4.09584 12.7901 3.94146 13.1666C3.45134 14.3622 3.09798 15.6206 2.88569 16.9037C2.08547 17.8576 1.43261 18.9413 0.944194 20.1281C-0.274872 23.0903 -0.314724 26.3791 0.831928 29.3887C1.98453 32.4141 4.19324 34.7847 7.05127 36.0638C8.48758 36.7067 10.0088 37.0315 11.5449 37.0315C12.3883 37.0315 13.2364 36.9335 14.0769 36.7365C14.2799 36.6889 14.4527 36.5501 14.5493 36.357C14.646 36.1639 14.6567 35.936 14.5787 35.734C13.9807 34.1837 13.8233 32.5265 14.1237 30.9412ZM7.60715 34.6987C5.09795 33.5757 3.15864 31.4943 2.1467 28.838C1.14069 26.1976 1.17531 23.3131 2.2441 20.7159C2.36762 20.4158 2.50437 20.1243 2.65132 19.84C2.65253 20.0829 2.6572 20.3257 2.66874 20.5681C2.78398 22.9918 3.39054 25.3031 4.47051 27.449L4.04615 29.6554C3.96885 30.0572 4.21689 30.4485 4.60012 30.5295C4.64733 30.5394 4.6944 30.5443 4.74077 30.5443C5.07077 30.5443 5.36616 30.3009 5.4339 29.9487L5.55664 29.3105C6.1792 30.2353 6.88818 31.0888 7.67482 31.8592C7.8113 31.9928 7.98479 32.059 8.15786 32.059C8.34714 32.059 8.53593 31.9799 8.6753 31.8234C8.94223 31.5239 8.92694 31.0543 8.64125 30.7745C7.60411 29.7588 6.71469 28.5837 5.99777 27.282C5.37529 26.1517 4.90265 24.9678 4.57973 23.7409L6.63944 24.5544C6.72163 24.5869 6.806 24.6023 6.88882 24.6023C7.17501 24.6023 7.44449 24.419 7.5513 24.1216C7.68912 23.7381 7.50437 23.31 7.13848 23.1655L4.22963 22.0165C4.15707 21.5149 4.10703 21.0074 4.0826 20.4941C4.04403 19.6821 4.07057 18.8654 4.15785 18.0552C5.04338 18.1827 5.91007 18.4323 6.74201 18.8021C8.90111 19.7618 10.6869 21.4882 11.7704 23.6633C12.8397 25.8098 13.1822 28.2917 12.735 30.6519C12.4354 32.2331 12.5205 33.8714 12.9783 35.4394C11.1532 35.7131 9.31152 35.4615 7.60715 34.6987Z" fill="#F7F7F7"/>
<path d="M36.1614 23.0344C35.8715 20.5164 34.849 18.1943 33.2042 16.3193C33.0634 16.1587 32.8609 16.0711 32.6546 16.0801C32.4467 16.0889 32.2532 16.1931 32.1252 16.3649C31.1438 17.683 29.8535 18.6544 28.3937 19.1743C25.9159 20.0569 23.7742 21.8253 22.3633 24.154C20.9328 26.5149 20.325 29.3466 20.6518 32.1273C20.7763 33.1862 21.0303 34.2139 21.4079 35.1929C20.5064 35.5 19.5763 35.7159 18.6356 35.8324C18.2474 35.8805 17.9698 36.2495 18.0157 36.6564C18.0582 37.0339 18.364 37.3115 18.7177 37.3115C18.7455 37.3115 18.7735 37.3098 18.8018 37.3063C20.0349 37.1535 21.2515 36.8449 22.4179 36.3959C23.1609 36.5519 23.9167 36.6311 24.6784 36.6311C25.1344 36.6311 25.5925 36.603 26.051 36.5469C29.1076 36.1726 31.8442 34.5644 33.757 32.0186C35.68 29.4593 36.5338 26.2686 36.1614 23.0344ZM32.645 31.1001C30.9667 33.3337 28.5667 34.7445 25.8868 35.0727C25.5771 35.1106 25.2679 35.1322 24.9595 35.1411C25.1596 35.0186 25.3578 34.8928 25.5523 34.7612C27.4968 33.4448 29.1028 31.7384 30.3355 29.685L32.3703 28.9671C32.7408 28.8363 32.9402 28.4155 32.8154 28.027C32.6908 27.6387 32.2895 27.4295 31.9188 27.5604L31.3302 27.7681C31.7828 26.7405 32.1333 25.6701 32.3764 24.5707C32.4648 24.1714 32.2276 23.7727 31.8467 23.6801C31.466 23.5875 31.0857 23.8362 30.9974 24.2354C30.6768 25.6852 30.1508 27.0803 29.434 28.3818C28.8115 29.5121 28.0698 30.5332 27.2178 31.4398L26.86 29.163C26.7964 28.7586 26.4333 28.4848 26.0464 28.5513C25.6607 28.618 25.3995 28.9998 25.4631 29.4042L25.9684 32.6197C25.5903 32.9365 25.1962 33.2356 24.7843 33.5144C24.1328 33.9555 23.4449 34.3397 22.732 34.6655C22.3945 33.7979 22.1674 32.8861 22.0569 31.9459C21.7702 29.5057 22.3033 27.0212 23.5583 24.9499C24.7969 22.9058 26.6758 21.3538 28.8491 20.5797C30.305 20.0612 31.6159 19.1648 32.6822 17.9651C33.8212 19.4855 34.5339 21.2835 34.7559 23.2122C35.0828 26.0519 34.3331 28.8532 32.645 31.1001Z" fill="#F7F7F7"/>
<path d="M11.2679 4.45514C11.6588 4.45514 11.9758 4.12289 11.9758 3.71304C11.9758 3.30319 11.6588 2.97095 11.2679 2.97095C10.877 2.97095 10.5601 3.30319 10.5601 3.71304C10.5601 4.12289 10.877 4.45514 11.2679 4.45514Z" fill="#F7F7F7"/>
</g>
<defs>
<clipPath id="clip0_1401_1935">
<rect width="36.2466" height="38" fill="white"/>
</clipPath>
</defs>
</svg>
