<svg width="35" height="40" viewBox="0 0 35 40" fill="none" xmlns="http://www.w3.org/2000/svg">
<g clip-path="url(#clip0_1401_1953)">
<path d="M34.2611 4.43553C34.0967 4.28748 33.8827 4.23569 33.6811 4.29514L30.4734 5.24021C29.9582 5.39185 29.4277 5.46881 28.8964 5.46881H24.189C22.662 5.46881 21.3864 6.73841 21.1561 8.48778C21.027 9.46824 20.312 10.1798 19.4561 10.1798H19.2839V8.54786C20.4467 7.74567 21.2278 6.27498 21.2278 4.59623C21.2279 2.06187 19.4485 0 17.2612 0C15.0739 0 13.2946 2.06187 13.2946 4.59623C13.2946 6.27498 14.0757 7.74567 15.2385 8.54786V10.1798H15.0662C14.2104 10.1798 13.4954 9.46824 13.3663 8.48778C13.136 6.73841 11.8604 5.46881 10.3334 5.46881H5.62599C5.0947 5.46881 4.56415 5.39193 4.0491 5.24021L0.841334 4.29522C0.639874 4.23584 0.425672 4.28756 0.261296 4.43561C0.097054 4.58358 0.000976562 4.81123 0.000976562 5.05232C0.000976562 6.70146 0.550067 8.20434 1.44665 9.33028C1.46634 11.2263 2.24164 12.9144 3.43927 14.0102L4.07351 14.9924C5.51966 17.232 7.82437 18.5692 10.2385 18.5692C12.0903 18.5692 13.8453 17.8149 15.2385 16.4327V19.2188H14.6338C12.2297 19.2188 10.2738 21.4852 10.2738 24.2709C10.2738 25.1222 10.4602 25.964 10.8127 26.7056C10.9356 26.964 11.1661 27.1101 11.4039 27.1101C11.5139 27.1101 11.6255 27.0788 11.7286 27.0129C12.0548 26.8047 12.1735 26.3296 11.9939 25.9517C11.7508 25.4404 11.6222 24.8592 11.6222 24.2709C11.6222 22.3467 12.9732 20.7813 14.6338 20.7813H15.2385V27.7604H13.6541C11.8758 27.7604 10.429 29.4368 10.429 31.4975C10.429 33.558 11.8758 35.2344 13.6541 35.2344H15.5287C15.7625 36.7014 16.1363 38.1363 16.65 39.5263C16.7562 39.8138 17 40 17.2698 40H17.271C17.5412 39.9995 17.7851 39.812 17.8905 39.5237L17.9038 39.4873C18.4066 38.1092 18.7725 36.6874 19.001 35.2344H19.7671C20.5292 35.2344 21.1493 35.9528 21.1493 36.8359C21.1493 37.7191 20.5292 38.4375 19.7671 38.4375H19.7213C19.349 38.4375 19.0471 38.7873 19.0471 39.2188C19.0471 39.6502 19.349 40 19.7213 40H19.7671C21.2728 40 22.4977 38.5806 22.4977 36.8359C22.4977 35.0913 21.2728 33.6719 19.7671 33.6719H19.1927C19.2531 32.9864 19.2839 32.295 19.2839 31.599V29.3229H19.7334C22.1375 29.3229 24.0933 27.0566 24.0933 24.2709C24.0933 21.4852 22.1375 19.2188 19.7334 19.2188H19.2839V16.4327C20.6772 17.815 22.432 18.5692 24.2839 18.5692C26.698 18.5692 29.0025 17.2321 30.4489 14.9924L31.0831 14.0102C32.2808 12.9144 33.056 11.2262 33.0757 9.3302C33.9724 8.20434 34.5214 6.70146 34.5214 5.05232C34.5214 4.81123 34.4253 4.58358 34.2611 4.43553ZM14.7047 14.8796C13.5079 16.2513 11.9218 17.0067 10.2385 17.0067C8.73883 17.0067 7.29052 16.381 6.15721 15.2829C6.32644 15.3021 6.4979 15.3125 6.67144 15.3125H7.80051C8.17281 15.3125 8.47473 14.9627 8.47473 14.5313C8.47473 14.0999 8.17281 13.75 7.80051 13.75H6.67144C4.96504 13.75 3.5135 12.4655 2.99643 10.6875C3.73438 11.1208 4.56759 11.3668 5.44988 11.3669L6.84438 11.3671H6.84445C7.21669 11.3671 7.51861 11.0174 7.51868 10.586C7.51875 10.1546 7.21689 9.80473 6.84452 9.80465L5.45001 9.80441C3.49523 9.8041 1.85551 8.21059 1.44719 6.08584L3.71698 6.7545C4.34051 6.93825 4.98277 7.0313 5.62599 7.0313H10.3334C11.1893 7.0313 11.9043 7.74286 12.0333 8.72332C12.2636 10.4727 13.5392 11.7423 15.0662 11.7423H15.2385V14.2679L14.7047 14.8796ZM13.6541 33.6718C12.6193 33.6718 11.7775 32.6964 11.7775 31.4974C11.7775 30.2983 12.6193 29.3229 13.6541 29.3229H15.2385V31.5525C15.2385 32.2643 15.2708 32.9711 15.3339 33.6718H13.6541ZM17.9354 31.5989C17.9354 33.418 17.7111 35.2032 17.2672 36.9281C16.8153 35.1889 16.587 33.3885 16.587 31.5525V29.3229H17.9354V31.5989ZM17.9354 27.7604H16.587V9.12473C16.8062 9.16848 17.0313 9.19254 17.2612 9.19254C17.4911 9.19254 17.7162 9.16848 17.9354 9.12473V27.7604ZM19.7334 20.7812C21.3939 20.7812 22.7449 22.3466 22.7449 24.2708C22.7449 26.195 21.3939 27.7604 19.7334 27.7604H19.2839V20.7812H19.7334ZM17.2612 7.62997C15.8175 7.62997 14.643 6.26904 14.643 4.59623C14.643 2.92343 15.8175 1.56249 17.2612 1.56249C18.7049 1.56249 19.8794 2.92343 19.8794 4.59623C19.8794 6.26904 18.7049 7.62997 17.2612 7.62997ZM29.0724 9.80441L27.678 9.80465C27.3056 9.80473 27.0038 10.1546 27.0038 10.586C27.0039 11.0175 27.3058 11.3672 27.6781 11.3671L29.0726 11.3669C29.9549 11.3668 30.7882 11.1209 31.5261 10.6875C31.009 12.4655 29.5574 13.75 27.8511 13.75H26.722C26.3496 13.75 26.0477 14.0999 26.0477 14.5313C26.0477 14.9627 26.3496 15.3125 26.722 15.3125H27.851C28.0246 15.3125 28.1959 15.3021 28.3652 15.2829C27.2318 16.381 25.7836 17.0067 24.2839 17.0067C22.6007 17.0067 21.0146 16.2513 19.8177 14.8797L19.2839 14.2679V11.7423H19.4561C20.9832 11.7423 22.2588 10.4727 22.4891 8.72332C22.6181 7.74286 23.3331 7.0313 24.189 7.0313H28.8964C29.5396 7.0313 30.1819 6.93825 30.8055 6.7545L33.0752 6.08584C32.6669 8.21052 31.0272 9.8041 29.0724 9.80441Z" fill="#F7F7F7"/>
<path d="M15.04 38.6664C14.9147 38.521 14.7407 38.4375 14.5634 38.4375C14.3861 38.4375 14.2121 38.521 14.0867 38.6664C13.9613 38.8118 13.8892 39.0133 13.8892 39.2188C13.8892 39.4242 13.9612 39.6258 14.0867 39.771C14.2121 39.9163 14.3861 40 14.5634 40C14.7407 40 14.9147 39.9164 15.04 39.771C15.1654 39.6258 15.2376 39.4242 15.2376 39.2188C15.2376 39.0133 15.1655 38.8117 15.04 38.6664Z" fill="#F7F7F7"/>
</g>
<defs>
<clipPath id="clip0_1401_1953">
<rect width="34.5205" height="40" fill="white"/>
</clipPath>
</defs>
</svg>
